<svg xmlns="http://www.w3.org/2000/svg" id="Layer_1" viewBox="0 0 198.2 49.8">
    <style>
        .st0{fill:#bae2e0}.st1{fill:#a2d4cc}.st2{fill:#42cda4}.st3{fill:#333}.st4{fill:#272727}.st5{fill:#383838}.st6{fill:#000659}
    </style>
    <path d="M10.2 17.4l11.6-6.8 11.6 6.8L21.8 24z" class="st0"/>
    <path d="M9.2 32.2l11.7 6.7V25.6L9.2 18.9z" class="st1"/>
    <path d="M22.8 25.7L34.3 19v13.2l-11.4 6.6z" class="st2"/>
    <path d="M20.9 40.9L7.8 33.3V18.2L0 13.8v24l20.8 12z" class="st3"/>
    <path d="M21.8 9.1L8.9 16.6.9 12 21.8 0l20.8 12-7.8 4.6z" class="st4"/>
    <path d="M22.8 49.7v-8.8l12-6.9 7.8 4.4z" class="st5"/>
    <path d="M63 34.9c-1.4.7-3 1.1-4.6 1-5.8 0-9.8-4.1-9.8-10.2s3.9-10.2 9.8-10.2c1.6-.1 3.2.3 4.6 1V18c-1.4-.8-3-1.2-4.6-1.1-3.8 0-8.1 2.7-8.1 8.9s4.3 8.9 8.1 8.9c1.6.1 3.2-.3 4.6-1.1v1.3zM67.2 21.9c1.3-1.8 3.3-2.8 5.5-2.7v1.4c-2.3-.1-4.5 1.2-5.5 3.4v11.7h-1.6v-16h1.2l.4 2.2zM87.7 34.2c0 4.5-2.5 6.9-7.2 6.9-1.5 0-3.1-.2-4.5-.7V39c1.4.6 3 .9 4.5.9 3.7 0 5.7-1.7 5.7-4.9l.2-2.1c-1.3 1.7-3.3 2.6-5.4 2.7-3.9 0-5.9-2-5.9-5.8V19.5h1.6v10.7c0 2.8 1.4 4 4.6 4 2 0 3.8-1 4.9-2.6V19.5h1.6v14.7zM104 27.5c0 5-2.5 8.4-6.8 8.4-2 .1-3.9-.7-5.4-2.1l.2 2.1v4.9h-1.6V19.5h1l.5 2c1.3-1.5 3.3-2.4 5.3-2.4 4.3 0 6.8 3.4 6.8 8.4zm-12-4.7v9.6c1.2 1.5 3 2.3 4.9 2.2 3.3 0 5.5-2.2 5.5-7.1 0-4.5-2.2-7.1-5.5-7.1-1.9-.1-3.8.9-4.9 2.4zM114.2 20.7h-4.3v14.8h-1.6V20.7h-2.9v-1.2h2.9v-2.9l1.6-.8v3.7h4.3v1.2zM114.5 27.5c0-5 2.8-8.4 7.6-8.4s7.6 3.4 7.6 8.4-2.9 8.4-7.6 8.4-7.6-3.4-7.6-8.4zm13.5 0c0-4.3-2.2-7.1-5.9-7.1s-5.9 2.9-5.9 7.1 2.2 7.1 5.9 7.1 5.9-2.8 5.9-7.1z" class="st6"/>
    <path d="M145.6 13.2c.4.1.6.3.6.6v2.8c0 .4-.2.6-.6.6h-7.1c-1.4 0-2.2.5-2.2 1.5v.4c0 .8.4 1.4 1.5 1.8l5 1.9c2.9 1.1 4.4 2.3 4.4 6.2v.8c0 4.2-3.2 5.8-8.7 5.8-2.4 0-4.9-.3-7.2-.7-.3 0-.6-.3-.6-.7v-2.7c0-.4.2-.6.6-.6h8.4c1.3 0 2.1-.4 2.1-1.4v-.3c0-1.1-.6-1.5-2-2l-5-1.8c-2.5-.9-3.8-2.4-3.8-6.4v-.6c0-4.2 2.7-5.8 8.4-5.8 2.1-.1 4.2.2 6.2.6zM154.3 14.4c.3-.1.4.1.4.5v4.2h2.5c.4 0 .5.1.5.4v2.8c0 .3-.1.5-.5.5h-2.5v7c0 1.2.5 1.5 1.7 1.5h1.1c.3 0 .5.1.5.4v3c0 .3-.2.5-.5.6-.9.2-1.9.3-2.9.3-2.7 0-5-.1-5-4v-8.8h-1.8c-.3 0-.5-.1-.5-.5v-2.8c0-.3.2-.4.5-.4h1.8V16c0-.3.1-.4.4-.5l4.3-1.1zM174.2 24.1v10c.1.4-.2.8-.7.9-2.2.4-4.5.6-6.7.6-4.6 0-7.2-.3-7.2-5.2.1-4.1 2.2-4.9 6.4-4.9h3.2v-.6c0-1.2-.8-1.7-2.2-1.7h-5.7c-.3 0-.4-.1-.4-.4v-3c0-.4.1-.4.4-.5 1.9-.4 3.8-.5 5.7-.5 6.2.1 7.2 2.2 7.2 5.3zm-7.8 4.5c-1.5 0-1.8.5-1.8 1.5s.5 1.5 2.1 1.5c.8 0 1.7-.1 2.5-.2v-2.8h-2.8zM185.7 19.2c.4.1.5.2.5.6v3c0 .3-.2.4-.5.4h-2.9c-1.2 0-1.8.2-1.8 1.5V35c0 .3-.1.5-.4.5h-4.2c-.3 0-.4-.1-.4-.5V23.3c0-3.9 2.5-4.5 5.6-4.5 1.4.1 2.8.2 4.1.4zM194.5 14.4c.3-.1.4.1.4.5v4.2h2.5c.4 0 .5.1.5.4v2.8c0 .3-.1.5-.5.5h-2.5v7c0 1.2.5 1.5 1.7 1.5h1.1c.3 0 .5.1.5.4v3c0 .3-.2.5-.5.6-.9.2-1.9.3-2.9.3-2.7 0-4.9-.1-4.9-4v-8.8h-1.8c-.3 0-.5-.1-.5-.5v-2.8c0-.3.2-.4.5-.4h1.8V16c0-.3.1-.4.4-.5l4.2-1.1zM96.3 37.9h100.9c.6 0 1 .5 1 1v.8c0 .6-.5 1-1 1H96.3c-.6 0-1-.5-1-1V39c-.1-.6.4-1.1 1-1.1z" class="st2"/>
</svg>
